<svg id="Layer_1" data-name="Layer 1" xmlns="http://www.w3.org/2000/svg" viewBox="0 0 175.71 202.95"><title>mtg-cart-icon</title><path d="M283.71,45.4,260.14,19.34A8.32,8.32,0,0,0,254,16.6H142a8.32,8.32,0,0,0-6.16,2.74L112.29,45.4a8.32,8.32,0,0,0-2.06,4.39h-.08V187.68A31.9,31.9,0,0,0,142,219.56H254a31.91,31.91,0,0,0,31.88-31.88V51h0A8.29,8.29,0,0,0,283.71,45.4Zm-138-12.19H250.3l8.55,9.46H137.15ZM254,203H142a15.29,15.29,0,0,1-15.27-15.27V59.27h142.5V187.68A15.29,15.29,0,0,1,254,203Z" transform="translate(-110.14 -16.6)"/><path d="M234.3,79.67A8.3,8.3,0,0,0,226,88v23.2a28,28,0,0,1-56,0V88a8.3,8.3,0,1,0-16.6,0v23.2a44.6,44.6,0,0,0,89.2,0V88A8.31,8.31,0,0,0,234.3,79.67Z" transform="translate(-110.14 -16.6)"/></svg>